<svg width="32" height="32" fill="none" xmlns="http://www.w3.org/2000/svg"><g clip-path="url(#clip0)"><path d="M19.624 20.664c-.96 0-1.824-.208-2.592-.624-.736-.416-1.44-.88-2.112-1.392-.64-.512-1.28-.976-1.92-1.392-.608-.416-1.248-.624-1.92-.624-.736 0-1.44.272-2.112.816-.64.544-1.232 1.648-1.776 3.312l-2.544-1.104c.832-2.24 1.824-3.792 2.976-4.656 1.152-.896 2.336-1.344 3.552-1.344.96 0 1.808.208 2.544.624.768.416 1.472.88 2.112 1.392.672.512 1.312.976 1.92 1.392.64.416 1.296.624 1.968.624.384 0 .736-.048 1.056-.144a3.089 3.089 0 001.008-.624c.352-.32.672-.752.96-1.296.288-.544.576-1.232.864-2.064l2.544 1.152c-.832 2.24-1.824 3.792-2.976 4.656-1.152.864-2.336 1.296-3.552 1.296z" fill="#B3C9D5"/></g><defs><clipPath id="clip0"><path fill="#fff" d="M0 0h32v32H0z"/></clipPath></defs></svg>